<?xml version="1.0" encoding="utf-8"?>
<!-- Generator: Adobe Illustrator 20.0.0, SVG Export Plug-In . SVG Version: 6.00 Build 0)  -->
<svg version="1.1" id="Layer_1" xmlns="http://www.w3.org/2000/svg" xmlns:xlink="http://www.w3.org/1999/xlink" x="0px" y="0px"
	 viewBox="0 0 300 300" style="enable-background:new 0 0 300 300;" xml:space="preserve">
<style type="text/css">
	.st0{fill:#0000FF;}
</style>
<path class="st0" d="M30,228.6c7.2-7.3,13.5-13.9,20.1-20.1c2.7-2.5,3-4.7,1.7-7.7c-2.8-6.3-5.5-12.7-7.6-19.2
	c-1.2-3.5-3.4-5-7.3-5.5c-8.1-1.2-16.1-2.7-24.2-3.7c-4.4-0.5-5.9-2.2-5.7-6.1c0.3-8.3,0.3-16.7,0-25c-0.1-3.7,1.1-5.5,5.6-6.3
	c7.8-1.2,15.6-2.8,23.2-4.8c2.4-0.6,5.1-2.9,5.9-5c2.8-6.9,5.1-14,6.9-21.2c0.5-2.2-0.6-5.3-2.3-7.1c-5.4-5.4-11.5-10.2-17-15.6
	c-1.2-1.2-1.9-4.1-1.1-5.2c6.4-9,13.2-17.7,19.8-26.6c10.4,3.7,19.4,6.8,28.3,10.2c3.4,1.3,5.9,1.3,8.9-0.9
	c6.1-4.5,12.5-8.7,19-12.7c3.3-2,3.9-4.2,3.3-7.4c-1.3-6.7-2.2-13.4-3.5-20.1c-0.8-3.9,0.4-6.3,4.8-7.6c9.4-2.8,18.6-6,28.1-8.5
	c1.8-0.5,5.5,1,6.7,2.5c4.7,5.9,8.5,12.3,13.1,18.2c1.3,1.7,4.3,3.2,6.6,3.3c8.4,0.4,16.9,0.4,25.3,0c2.4-0.1,5.6-1.9,6.9-3.8
	c4.5-6.2,8.4-12.7,12.3-19.3c1.6-2.7,3.2-3.6,6.7-2.7c9.1,2.5,18.2,4.6,27.4,6.8c4.2,1,5.9,2.9,5.1,7.2c-1.2,6.9-1.2,13.9-2.1,20.8
	c-0.5,3.6,1,5.7,4.6,7.4c6,2.8,12.1,5.8,17.7,9.1c14.1,8.4,17.8,23.5,8.8,35.1c-9.1,11.7-26.6,14.8-40.4,6.3
	c-18.3-11.2-38.3-17-60.5-16.1c-32.1,1.3-53.8,16.4-66.6,41.3c-16.8,32.7-4.8,72.9,26.8,92.2c26.2,16,70.3,16.1,96.9,0
	c1.5-0.9,3.2-2.9,3.2-4.4c0.3-9.9,0.1-19.8,0.1-30.4c-2.6-0.1-5-0.3-7.3-0.3c-11.1-0.1-22.2,0.2-33.3-0.2
	c-13.7-0.4-23.7-9.7-23.6-21.5c0.1-12.1,10.5-21.6,24.2-21.7c22.8-0.2,45.7-0.2,68.5,0c14.9,0.1,27,10.7,27.2,23.8
	c0.3,20.4,0.3,40.7-0.1,61.1c-0.2,11.7-6.7,20.7-17.7,27.1c-5,2.9-10.2,5.5-15.6,7.7c-4.6,1.9-6,4.5-5.2,8.7
	c1.2,6.5,1.7,13.1,3.3,19.5c1.1,4.4-0.5,6.5-4.9,7.8c-8.9,2.8-18,5.4-26.8,8.5c-4,1.4-6.3,0.2-8.2-2.5c-4-5.8-8.1-11.6-11.9-17.4
	c-2.1-3.2-4.9-4.5-9.2-4.3c-8,0.3-16-0.2-23.9,0.2c-2.3,0.1-5.3,1.7-6.5,3.5c-4.3,6.3-8.2,12.9-11.9,19.5c-1.7,3-3.9,4-7.4,3.1
	c-11.2-2.7-22.4-5.5-33.8-8.3c0.9-9.5,1.4-17.8,2.4-26.1c0.4-3.5-0.5-5.8-4-7.8c-8-4.5-15.4-12.3-23.8-13.1
	c-7.9-0.7-16.9,5.5-24.9,9.4c-5,2.4-8.2,1.5-11.3-2C43.6,243.8,36.9,236.4,30,228.6z"/>
</svg>
