<svg id="Layer_1" data-name="Layer 1" xmlns="http://www.w3.org/2000/svg" viewBox="0 0 300 300"><defs><style>.cls-1,.cls-2{fill:blue;}.cls-2{font-size:60px;font-family:Audiowide-Regular, Audiowide;}.cls-3{letter-spacing:0em;}</style></defs><title>Artboard 1</title><path class="cls-1" d="M89.8,143.09c3.46-3.49,6.44-6.64,9.61-9.62a2.82,2.82,0,0,0,.79-3.69c-1.34-3-2.63-6.06-3.65-9.16-.56-1.69-1.62-2.38-3.47-2.64-3.86-.55-7.69-1.29-11.56-1.77-2.12-.26-2.8-1.07-2.73-2.91.14-4,.13-8,0-12-.06-1.78.51-2.65,2.65-3a108.59,108.59,0,0,0,11.09-2.3,4.74,4.74,0,0,0,2.83-2.37,75.34,75.34,0,0,0,3.29-10.12,4.1,4.1,0,0,0-1.1-3.38c-2.56-2.59-5.5-4.89-8.11-7.44a2.49,2.49,0,0,1-.54-2.5c3-4.3,6.29-8.48,9.47-12.69,5,1.78,9.28,3.25,13.52,4.88a3.92,3.92,0,0,0,4.27-.42c2.92-2.14,6-4.16,9.1-6.06a2.9,2.9,0,0,0,1.57-3.52c-.64-3.19-1-6.41-1.69-9.6-.38-1.84.21-3,2.28-3.62,4.49-1.35,8.91-2.87,13.45-4.06a4.06,4.06,0,0,1,3.21,1.2c2.23,2.81,4,5.87,6.25,8.69a4.87,4.87,0,0,0,3.17,1.56,119.82,119.82,0,0,0,12.07,0,5.06,5.06,0,0,0,3.32-1.81c2.14-3,4-6.09,5.86-9.21A2.41,2.41,0,0,1,178,34.33c4.33,1.17,8.71,2.19,13.08,3.26,2,.49,2.81,1.4,2.45,3.42-.58,3.29-.57,6.65-1,10-.22,1.73.48,2.74,2.19,3.54,2.88,1.36,5.77,2.75,8.47,4.35,6.76,4,8.5,11.21,4.19,16.76s-12.69,7.06-19.31,3a50.09,50.09,0,0,0-28.9-7.69c-15.33.63-25.7,7.81-31.83,19.74-8,15.65-2.3,34.84,12.82,44.07,12.5,7.63,33.6,7.67,46.32,0a3.19,3.19,0,0,0,1.55-2.1c.14-4.72.07-9.44.07-14.51-1.27-.05-2.38-.13-3.49-.13-5.3,0-10.6.08-15.9-.07-6.55-.19-11.31-4.65-11.26-10.28s5-10.33,11.57-10.37q16.38-.11,32.75,0c7.11.06,12.92,5.11,13,11.37.13,9.73.14,19.47,0,29.2-.1,5.58-3.18,9.91-8.48,13a62.47,62.47,0,0,1-7.45,3.69c-2.2.9-2.86,2.16-2.48,4.18.59,3.1.79,6.27,1.58,9.33.54,2.1-.23,3.1-2.32,3.75-4.27,1.32-8.58,2.59-12.79,4a3,3,0,0,1-3.93-1.22c-1.92-2.77-3.87-5.52-5.7-8.33a4.44,4.44,0,0,0-4.39-2.06c-3.81.14-7.64-.08-11.44.12a4.65,4.65,0,0,0-3.11,1.66c-2.07,3-3.92,6.14-5.67,9.3a2.79,2.79,0,0,1-3.53,1.5c-5.37-1.3-10.72-2.63-16.14-4,.41-4.56.68-8.53,1.16-12.48a3.28,3.28,0,0,0-1.89-3.72c-3.82-2.15-7.38-5.88-11.36-6.24-3.78-.34-8.07,2.64-11.92,4.49-2.39,1.15-3.9.71-5.39-1Z"/><text class="cls-2" transform="translate(2.4 259.11)">SE<tspan class="cls-3" x="92.02" y="0">R</tspan><tspan x="141.42" y="0">VICE</tspan></text></svg>